<?xml version="1.0" encoding="UTF-8"?>
<svg version="1.1" viewBox="0 0 132 100" xml:space="preserve" xmlns="http://www.w3.org/2000/svg">
<style type="text/css">
	.st0{fill:#80BF1F;}
	.st1{fill:#3E9F2C;}
	.st2{fill:#247E2C;}
	.st3{fill:#1980B2;}
	.st4{fill:#144920;}
</style>
<g><g transform="translate(-21.5,-31.5)"><path class="st0" d="m33.125 130.36c-5.7 0-10.31-4.62-10.31-10.31v-46.82c0-5.7 4.62-10.31 10.31-10.31 5.7 0 10.31 4.62 10.31 10.31v46.83c0 5.69-4.62 10.3-10.31 10.3z" fill="#80c41c"/><path class="st1" d="m60.305 110.3c-5.7 0-10.31-4.62-10.31-10.31v-46.83c0-5.7 4.62-10.31 10.31-10.31 5.7 0 10.31 4.62 10.31 10.31v46.83c0.01 5.69-4.61 10.31-10.31 10.31z" fill="#40a629"/><path class="st2" d="m87.495 121.76c-5.7 0-10.31-4.62-10.31-10.31v-46.83c0-5.7 4.62-10.31 10.31-10.31 5.7 0 10.31 4.62 10.31 10.31v46.83c0 5.69-4.61 10.31-10.31 10.31z" fill="#237d26"/><path class="st3" d="m141.88 130.36c-5.7 0-10.31-4.62-10.31-10.31v-46.82c0-5.7 4.62-10.31 10.31-10.31 5.7 0 10.31 4.62 10.31 10.31v46.83c0 5.69-4.62 10.3-10.31 10.3z" fill="#0580b7"/><path class="st4" d="m114.68 100.08c-5.7 0-10.31-4.62-10.31-10.31v-46.83c0-5.7 4.62-10.31 10.31-10.31 5.7 0 10.31 4.62 10.31 10.31v46.83c0 5.69-4.62 10.31-10.31 10.31z" fill="#12491d"/></g></g></svg>
