<?xml version="1.0" encoding="UTF-8" standalone="no"?>
<!-- Created with Inkscape (http://www.inkscape.org/) -->

<svg
   xmlns:dc="http://purl.org/dc/elements/1.1/"
   xmlns:cc="http://creativecommons.org/ns#"
   xmlns:rdf="http://www.w3.org/1999/02/22-rdf-syntax-ns#"
   xmlns:svg="http://www.w3.org/2000/svg"
   xmlns="http://www.w3.org/2000/svg"
   xmlns:sodipodi="http://sodipodi.sourceforge.net/DTD/sodipodi-0.dtd"
   xmlns:inkscape="http://www.inkscape.org/namespaces/inkscape"
   width="1080mm"
   height="350mm"
   viewBox="0 0 1080 350"
   version="1.1"
   id="svg8"
   inkscape:version="0.92.1 r15371"
   sodipodi:docname="feynman.svg"
   inkscape:export-filename="D:\homepage\img\feynman.png"
   inkscape:export-xdpi="25.4"
   inkscape:export-ydpi="25.4">
  <defs
     id="defs2">
    <clipPath
       id="clipPath5052"
       clipPathUnits="userSpaceOnUse">
      <path
         inkscape:connector-curvature="0"
         id="path5050"
         d="M 14.094,66.015 H 453.357 V 420.80435 H 14.094 Z" />
    </clipPath>
    <clipPath
       id="clipPath5338"
       clipPathUnits="userSpaceOnUse">
      <path
         inkscape:connector-curvature="0"
         id="path5336"
         d="M 69.001875,27.537637 H 398.44912 V 44.01 H 69.001875 Z" />
    </clipPath>
    <clipPath
       id="clipPath5348"
       clipPathUnits="userSpaceOnUse">
      <path
         inkscape:connector-curvature="0"
         id="path5346"
         d="M 69.001875,27.537637 H 398.44912 V 44.01 H 69.001875 Z" />
    </clipPath>
    <clipPath
       id="clipPath5890"
       clipPathUnits="userSpaceOnUse">
      <path
         inkscape:connector-curvature="0"
         id="path5888"
         d="M 14.094,66.015 H 453.357 V 421.39575 H 14.094 Z" />
    </clipPath>
    <clipPath
       id="clipPath6335"
       clipPathUnits="userSpaceOnUse">
      <path
         inkscape:connector-curvature="0"
         id="path6333"
         d="M 14.094,66.015 H 453.357 V 420.80435 H 14.094 Z" />
    </clipPath>
    <clipPath
       id="clipPath16183"
       clipPathUnits="userSpaceOnUse">
      <path
         inkscape:connector-curvature="0"
         id="path16181"
         d="M 69.001875,27.537637 H 398.44912 V 44.01 H 69.001875 Z" />
    </clipPath>
    <clipPath
       id="clipPath16193"
       clipPathUnits="userSpaceOnUse">
      <path
         inkscape:connector-curvature="0"
         id="path16191"
         d="M 69.001875,27.537637 H 398.44912 V 44.01 H 69.001875 Z" />
    </clipPath>
    <clipPath
       id="clipPath16735"
       clipPathUnits="userSpaceOnUse">
      <path
         inkscape:connector-curvature="0"
         id="path16733"
         d="M 14.094,66.015 H 453.357 V 421.39575 H 14.094 Z" />
    </clipPath>
    <clipPath
       id="clipPath21961"
       clipPathUnits="userSpaceOnUse">
      <path
         inkscape:connector-curvature="0"
         id="path21959"
         d="M 14.094,66.015 H 453.357 V 420.80435 H 14.094 Z" />
    </clipPath>
    <clipPath
       id="clipPath31809"
       clipPathUnits="userSpaceOnUse">
      <path
         inkscape:connector-curvature="0"
         id="path31807"
         d="M 69.001875,27.537637 H 398.44912 V 44.01 H 69.001875 Z" />
    </clipPath>
    <clipPath
       id="clipPath31819"
       clipPathUnits="userSpaceOnUse">
      <path
         inkscape:connector-curvature="0"
         id="path31817"
         d="M 69.001875,27.537637 H 398.44912 V 44.01 H 69.001875 Z" />
    </clipPath>
    <clipPath
       id="clipPath32361"
       clipPathUnits="userSpaceOnUse">
      <path
         inkscape:connector-curvature="0"
         id="path32359"
         d="M 14.094,66.015 H 453.357 V 421.39575 H 14.094 Z" />
    </clipPath>
  </defs>
  <sodipodi:namedview
     id="base"
     pagecolor="#ffffff"
     bordercolor="#666666"
     borderopacity="1.0"
     inkscape:pageopacity="0.0"
     inkscape:pageshadow="2"
     inkscape:zoom="0.33517086"
     inkscape:cx="1954.2717"
     inkscape:cy="725.85315"
     inkscape:document-units="mm"
     inkscape:current-layer="layer2"
     showgrid="false"
     inkscape:pagecheckerboard="true"
     inkscape:window-width="1920"
     inkscape:window-height="1027"
     inkscape:window-x="-8"
     inkscape:window-y="-8"
     inkscape:window-maximized="1" />
  <metadata
     id="metadata5">
    <rdf:RDF>
      <cc:Work
         rdf:about="">
        <dc:format>image/svg+xml</dc:format>
        <dc:type
           rdf:resource="http://purl.org/dc/dcmitype/StillImage" />
        <dc:title></dc:title>
      </cc:Work>
    </rdf:RDF>
  </metadata>
  <g
     inkscape:groupmode="layer"
     id="layer2"
     inkscape:label="Layer 2">
    <path
       style="opacity:1;fill:none;fill-opacity:1;fill-rule:nonzero;stroke:#ffffff;stroke-width:3;stroke-linecap:round;stroke-linejoin:round;stroke-miterlimit:4;stroke-dasharray:none;stroke-opacity:1;paint-order:stroke fill markers"
       id="path14757"
       sodipodi:type="arc"
       sodipodi:cx="400.74387"
       sodipodi:cy="196.44028"
       sodipodi:rx="16.023651"
       sodipodi:ry="16.023722"
       sodipodi:start="0"
       sodipodi:end="6.2737605"
       sodipodi:open="true"
       d="m 416.76752,196.44028 a 16.023651,16.023722 0 0 1 -15.9859,16.02367 16.023651,16.023722 0 0 1 -16.06123,-15.94816 16.023651,16.023722 0 0 1 15.91021,-16.09883 16.023651,16.023722 0 0 1 16.13621,15.8723" />
    <path
       style="opacity:1;fill:#fcfcf9;fill-opacity:1;fill-rule:nonzero;stroke:#ffffff;stroke-width:0.92794323;stroke-linecap:round;stroke-linejoin:round;stroke-miterlimit:4;stroke-dasharray:none;stroke-opacity:1;paint-order:stroke fill markers"
       id="path14757-0"
       sodipodi:type="arc"
       sodipodi:cx="50.499977"
       sodipodi:cy="68.202103"
       sodipodi:rx="5.036005"
       sodipodi:ry="5.0360274"
       sodipodi:start="0"
       sodipodi:end="6.2737605"
       sodipodi:open="true"
       d="m 55.535982,68.202103 a 5.036005,5.0360274 0 0 1 -5.024139,5.036013 5.036005,5.0360274 0 0 1 -5.047815,-5.012282 5.036005,5.0360274 0 0 1 5.000352,-5.059633 5.036005,5.0360274 0 0 1 5.071378,4.988439" />
    <path
       style="fill:none;stroke:#ffffff;stroke-width:3;stroke-linecap:round;stroke-linejoin:miter;stroke-miterlimit:4;stroke-dasharray:none;stroke-opacity:1"
       d="M 6.8714581,68.154637 H 52.26723"
       id="path14759-1"
       inkscape:connector-curvature="0"
       sodipodi:nodetypes="cc" />
    <path
       style="opacity:1;fill:#fcfcf9;fill-opacity:1;fill-rule:nonzero;stroke:#ffffff;stroke-width:0.92794329;stroke-linecap:round;stroke-linejoin:round;stroke-miterlimit:4;stroke-dasharray:none;stroke-opacity:1;paint-order:stroke fill markers"
       id="path14757-0-0"
       sodipodi:type="arc"
       sodipodi:cx="121.81403"
       sodipodi:cy="68.394722"
       sodipodi:rx="5.036005"
       sodipodi:ry="5.0360274"
       sodipodi:start="0"
       sodipodi:end="6.2737605"
       sodipodi:open="true"
       d="m 126.85004,68.394722 a 5.036005,5.0360274 0 0 1 -5.02414,5.036013 5.036005,5.0360274 0 0 1 -5.04782,-5.012281 5.036005,5.0360274 0 0 1 5.00036,-5.059634 5.036005,5.0360274 0 0 1 5.07137,4.988439" />
    <path
       style="opacity:1;fill:#fcfcf9;fill-opacity:1;fill-rule:nonzero;stroke:#ffffff;stroke-width:0.92794329;stroke-linecap:round;stroke-linejoin:round;stroke-miterlimit:4;stroke-dasharray:none;stroke-opacity:1;paint-order:stroke fill markers"
       id="path14757-0-3"
       sodipodi:type="arc"
       sodipodi:cx="1038.91"
       sodipodi:cy="195.83672"
       sodipodi:rx="5.036005"
       sodipodi:ry="5.0360274"
       sodipodi:start="0"
       sodipodi:end="6.2737605"
       sodipodi:open="true"
       d="m 1043.946,195.83672 a 5.036005,5.0360274 0 0 1 -5.0241,5.03601 5.036005,5.0360274 0 0 1 -5.0478,-5.01228 5.036005,5.0360274 0 0 1 5.0003,-5.05964 5.036005,5.0360274 0 0 1 5.0714,4.98844" />
    <path
       style="opacity:1;fill:#fcfcf9;fill-opacity:1;fill-rule:nonzero;stroke:#ffffff;stroke-width:0.92794335;stroke-linecap:round;stroke-linejoin:round;stroke-miterlimit:4;stroke-dasharray:none;stroke-opacity:1;paint-order:stroke fill markers"
       id="path14757-0-3-4"
       sodipodi:type="arc"
       sodipodi:cx="164.09946"
       sodipodi:cy="68.394722"
       sodipodi:rx="5.036005"
       sodipodi:ry="5.0360274"
       sodipodi:start="0"
       sodipodi:end="6.2737605"
       sodipodi:open="true"
       d="m 169.13546,68.394722 a 5.036005,5.0360274 0 0 1 -5.02414,5.036013 5.036005,5.0360274 0 0 1 -5.04781,-5.012281 5.036005,5.0360274 0 0 1 5.00035,-5.059634 5.036005,5.0360274 0 0 1 5.07138,4.988439" />
    <path
       style="fill:none;stroke:#ffffff;stroke-width:3;stroke-linecap:round;stroke-linejoin:miter;stroke-miterlimit:4;stroke-dasharray:none;stroke-opacity:1"
       d="M 81.484277,68.347259 H 161.09659"
       id="path14759-13"
       inkscape:connector-curvature="0"
       sodipodi:nodetypes="cc" />
    <path
       style="opacity:1;fill:#fcfcf9;fill-opacity:1;fill-rule:nonzero;stroke:#ffffff;stroke-width:0.92794335;stroke-linecap:round;stroke-linejoin:round;stroke-miterlimit:4;stroke-dasharray:none;stroke-opacity:1;paint-order:stroke fill markers"
       id="path14757-0-0-1"
       sodipodi:type="arc"
       sodipodi:cx="402.18307"
       sodipodi:cy="67.866722"
       sodipodi:rx="5.036005"
       sodipodi:ry="5.0360274"
       sodipodi:start="0"
       sodipodi:end="6.2737605"
       sodipodi:open="true"
       d="m 407.21908,67.866722 a 5.036005,5.0360274 0 0 1 -5.02414,5.036014 5.036005,5.0360274 0 0 1 -5.04781,-5.012282 5.036005,5.0360274 0 0 1 5.00035,-5.059634 5.036005,5.0360274 0 0 1 5.07138,4.988439" />
    <path
       style="fill:none;stroke:#ffffff;stroke-width:3;stroke-linecap:round;stroke-linejoin:miter;stroke-miterlimit:4;stroke-dasharray:none;stroke-opacity:1"
       d="m 360.08232,67.819259 h 42.32337"
       id="path14759-13-5"
       inkscape:connector-curvature="0"
       sodipodi:nodetypes="cc" />
    <path
       style="opacity:1;fill:none;fill-opacity:1;fill-rule:nonzero;stroke:#ffffff;stroke-width:3;stroke-linecap:round;stroke-linejoin:round;stroke-miterlimit:4;stroke-dasharray:none;stroke-opacity:1;paint-order:stroke fill markers"
       id="path14757-9"
       sodipodi:type="arc"
       sodipodi:cx="418.40958"
       sodipodi:cy="67.866722"
       sodipodi:rx="16.023651"
       sodipodi:ry="16.023722"
       sodipodi:start="0"
       sodipodi:end="6.2737605"
       sodipodi:open="true"
       d="M 434.43323,67.866722 A 16.023651,16.023722 0 0 1 418.44733,83.890399 16.023651,16.023722 0 0 1 402.3861,67.942232 16.023651,16.023722 0 0 1 418.29631,51.843401 16.023651,16.023722 0 0 1 434.43252,67.715704" />
    <path
       style="opacity:1;fill:#fcfcf9;fill-opacity:1;fill-rule:nonzero;stroke:#ffffff;stroke-width:0.92794341;stroke-linecap:round;stroke-linejoin:round;stroke-miterlimit:4;stroke-dasharray:none;stroke-opacity:1;paint-order:stroke fill markers"
       id="path14757-0-0-1-4"
       sodipodi:type="arc"
       sodipodi:cx="685.3598"
       sodipodi:cy="67.87487"
       sodipodi:rx="5.036005"
       sodipodi:ry="5.0360274"
       sodipodi:start="0"
       sodipodi:end="6.2737605"
       sodipodi:open="true"
       d="m 690.39581,67.87487 a 5.036005,5.0360274 0 0 1 -5.02414,5.036014 5.036005,5.0360274 0 0 1 -5.04782,-5.012282 5.036005,5.0360274 0 0 1 5.00036,-5.059633 5.036005,5.0360274 0 0 1 5.07137,4.988438" />
    <path
       style="fill:none;stroke:#ffffff;stroke-width:3;stroke-linecap:round;stroke-linejoin:miter;stroke-miterlimit:4;stroke-dasharray:none;stroke-opacity:1"
       d="m 643.25908,67.8274 h 42.32337"
       id="path14759-13-5-0"
       inkscape:connector-curvature="0"
       sodipodi:nodetypes="cc" />
    <path
       style="fill:none;stroke:#ffffff;stroke-width:3;stroke-linecap:round;stroke-linejoin:miter;stroke-miterlimit:4;stroke-dasharray:none;stroke-opacity:1"
       d="M 685.26022,68.150089 705.87435,47.538621"
       id="path14759-13-5-0-2"
       inkscape:connector-curvature="0"
       sodipodi:nodetypes="cc" />
    <path
       style="fill:none;stroke:#ffffff;stroke-width:3;stroke-linecap:round;stroke-linejoin:miter;stroke-miterlimit:4;stroke-dasharray:none;stroke-opacity:1"
       d="m 685.26022,68.150089 20.63711,20.634574"
       id="path14759-13-5-0-2-7"
       inkscape:connector-curvature="0"
       sodipodi:nodetypes="cc" />
    <path
       style="opacity:1;fill:#fcfcf9;fill-opacity:1;fill-rule:nonzero;stroke:#ffffff;stroke-width:0.92794335;stroke-linecap:round;stroke-linejoin:round;stroke-miterlimit:4;stroke-dasharray:none;stroke-opacity:1;paint-order:stroke fill markers"
       id="path14757-0-3-3"
       sodipodi:type="arc"
       sodipodi:cx="706.51605"
       sodipodi:cy="46.669903"
       sodipodi:rx="5.036005"
       sodipodi:ry="5.0360274"
       sodipodi:start="0"
       sodipodi:end="6.2737605"
       sodipodi:open="true"
       d="m 711.55206,46.669903 a 5.036005,5.0360274 0 0 1 -5.02414,5.036013 5.036005,5.0360274 0 0 1 -5.04782,-5.012281 5.036005,5.0360274 0 0 1 5.00036,-5.059634 5.036005,5.0360274 0 0 1 5.07137,4.988439" />
    <path
       style="opacity:1;fill:#fcfcf9;fill-opacity:1;fill-rule:nonzero;stroke:#ffffff;stroke-width:0.92794341;stroke-linecap:round;stroke-linejoin:round;stroke-miterlimit:4;stroke-dasharray:none;stroke-opacity:1;paint-order:stroke fill markers"
       id="path14757-0-3-3-5"
       sodipodi:type="arc"
       sodipodi:cx="706.64789"
       sodipodi:cy="89.410263"
       sodipodi:rx="5.036005"
       sodipodi:ry="5.0360274"
       sodipodi:start="0"
       sodipodi:end="6.2737605"
       sodipodi:open="true"
       d="m 711.68389,89.410263 a 5.036005,5.0360274 0 0 1 -5.02414,5.036014 5.036005,5.0360274 0 0 1 -5.04781,-5.012282 5.036005,5.0360274 0 0 1 5.00035,-5.059634 5.036005,5.0360274 0 0 1 5.07138,4.988439" />
    <path
       style="opacity:1;fill:#fcfcf9;fill-opacity:1;fill-rule:nonzero;stroke:#ffffff;stroke-width:0.92794341;stroke-linecap:round;stroke-linejoin:round;stroke-miterlimit:4;stroke-dasharray:none;stroke-opacity:1;paint-order:stroke fill markers"
       id="path14757-0-0-1-6"
       sodipodi:type="arc"
       sodipodi:cx="953.73071"
       sodipodi:cy="67.334068"
       sodipodi:rx="5.036005"
       sodipodi:ry="5.0360274"
       sodipodi:start="0"
       sodipodi:end="6.2737605"
       sodipodi:open="true"
       d="m 958.76672,67.334068 a 5.036005,5.0360274 0 0 1 -5.02414,5.036014 5.036005,5.0360274 0 0 1 -5.04782,-5.012282 5.036005,5.0360274 0 0 1 5.00036,-5.059633 5.036005,5.0360274 0 0 1 5.07137,4.988438" />
    <path
       style="opacity:1;fill:none;fill-opacity:1;fill-rule:nonzero;stroke:#ffffff;stroke-width:3;stroke-linecap:round;stroke-linejoin:round;stroke-miterlimit:4;stroke-dasharray:none;stroke-opacity:1;paint-order:stroke fill markers"
       id="path14757-9-0"
       sodipodi:type="arc"
       sodipodi:cx="969.95721"
       sodipodi:cy="67.334068"
       sodipodi:rx="16.023651"
       sodipodi:ry="16.023722"
       sodipodi:start="0"
       sodipodi:end="6.2737605"
       sodipodi:open="true"
       d="m 985.98087,67.334068 a 16.023651,16.023722 0 0 1 -15.9859,16.023678 16.023651,16.023722 0 0 1 -16.06123,-15.948168 16.023651,16.023722 0 0 1 15.91021,-16.098831 16.023651,16.023722 0 0 1 16.1362,15.872303" />
    <path
       style="fill:none;stroke:#ffffff;stroke-width:3;stroke-linecap:round;stroke-linejoin:miter;stroke-miterlimit:4;stroke-dasharray:none;stroke-opacity:1"
       d="m 932.83998,46.649515 20.63456,20.637089"
       id="path14759-13-5-0-2-7-3"
       inkscape:connector-curvature="0"
       sodipodi:nodetypes="cc" />
    <path
       style="opacity:1;fill:#fcfcf9;fill-opacity:1;fill-rule:nonzero;stroke:#ffffff;stroke-width:0.92794341;stroke-linecap:round;stroke-linejoin:round;stroke-miterlimit:4;stroke-dasharray:none;stroke-opacity:1;paint-order:stroke fill markers"
       id="path14757-0-0-1-4-9"
       sodipodi:type="arc"
       sodipodi:cx="932.58722"
       sodipodi:cy="87.945534"
       sodipodi:rx="5.036005"
       sodipodi:ry="5.0360274"
       sodipodi:start="0"
       sodipodi:end="6.2737605"
       sodipodi:open="true"
       d="m 937.62322,87.945534 a 5.036005,5.0360274 0 0 1 -5.02413,5.036013 5.036005,5.0360274 0 0 1 -5.04782,-5.012282 5.036005,5.0360274 0 0 1 5.00035,-5.059633 5.036005,5.0360274 0 0 1 5.07138,4.988439" />
    <path
       style="fill:none;stroke:#ffffff;stroke-width:3;stroke-linecap:round;stroke-linejoin:miter;stroke-miterlimit:4;stroke-dasharray:none;stroke-opacity:1"
       d="M 932.86041,87.898072 953.47454,67.286604"
       id="path14759-13-5-0-2-0"
       inkscape:connector-curvature="0"
       sodipodi:nodetypes="cc" />
    <path
       style="opacity:1;fill:#fcfcf9;fill-opacity:1;fill-rule:nonzero;stroke:#ffffff;stroke-width:0.92794341;stroke-linecap:round;stroke-linejoin:round;stroke-miterlimit:4;stroke-dasharray:none;stroke-opacity:1;paint-order:stroke fill markers"
       id="path14757-0-0-1-1-2"
       sodipodi:type="arc"
       sodipodi:cx="1054.9733"
       sodipodi:cy="67.852768"
       sodipodi:rx="5.036005"
       sodipodi:ry="5.0360274"
       sodipodi:start="0"
       sodipodi:end="6.2737605"
       sodipodi:open="true"
       d="m 1060.0093,67.852768 a 5.036005,5.0360274 0 0 1 -5.0242,5.036013 5.036005,5.0360274 0 0 1 -5.0478,-5.012281 5.036005,5.0360274 0 0 1 5.0004,-5.059634 5.036005,5.0360274 0 0 1 5.0713,4.988439" />
    <path
       style="fill:none;stroke:#ffffff;stroke-width:3;stroke-linecap:round;stroke-linejoin:miter;stroke-miterlimit:4;stroke-dasharray:none;stroke-opacity:1"
       d="m 1012.8729,67.805308 h 42.3234"
       id="path14759-13-5-00-1"
       inkscape:connector-curvature="0"
       sodipodi:nodetypes="cc" />
    <path
       style="opacity:1;fill:none;fill-opacity:1;fill-rule:nonzero;stroke:#ffffff;stroke-width:3;stroke-linecap:round;stroke-linejoin:round;stroke-miterlimit:4;stroke-dasharray:none;stroke-opacity:1;paint-order:stroke fill markers"
       id="path14757-9-1-8"
       sodipodi:type="arc"
       sodipodi:cx="1054.7584"
       sodipodi:cy="50.351875"
       sodipodi:rx="16.023651"
       sodipodi:ry="16.023722"
       sodipodi:start="0"
       sodipodi:end="6.2737605"
       sodipodi:open="true"
       d="m 1070.7821,50.351875 a 16.023651,16.023722 0 0 1 -15.9859,16.023678 16.023651,16.023722 0 0 1 -16.0613,-15.948168 16.023651,16.023722 0 0 1 15.9103,-16.098831 16.023651,16.023722 0 0 1 16.1362,15.872303" />
    <path
       style="opacity:1;fill:none;fill-opacity:1;fill-rule:nonzero;stroke:#ffffff;stroke-width:3;stroke-linecap:round;stroke-linejoin:round;stroke-miterlimit:4;stroke-dasharray:none;stroke-opacity:1;paint-order:stroke fill markers"
       id="path14757-9-1-4"
       sodipodi:type="arc"
       sodipodi:cx="1055.3406"
       sodipodi:cy="84.821007"
       sodipodi:rx="16.023651"
       sodipodi:ry="16.023722"
       sodipodi:start="0"
       sodipodi:end="6.2737605"
       sodipodi:open="true"
       d="m 1071.3642,84.821007 a 16.023651,16.023722 0 0 1 -15.9859,16.023673 16.023651,16.023722 0 0 1 -16.0612,-15.948163 16.023651,16.023722 0 0 1 15.9102,-16.098832 16.023651,16.023722 0 0 1 16.1362,15.872304" />
    <path
       style="fill:none;stroke:#ffffff;stroke-width:3;stroke-linecap:round;stroke-linejoin:miter;stroke-miterlimit:4;stroke-dasharray:none;stroke-opacity:1"
       d="M 6.5213637,133.17494 H 51.917136"
       id="path14759-1-9"
       inkscape:connector-curvature="0"
       sodipodi:nodetypes="cc" />
    <path
       style="opacity:1;fill:#fcfcf9;fill-opacity:1;fill-rule:nonzero;stroke:#ffffff;stroke-width:0.92794335;stroke-linecap:round;stroke-linejoin:round;stroke-miterlimit:4;stroke-dasharray:none;stroke-opacity:1;paint-order:stroke fill markers"
       id="path14757-0-0-7"
       sodipodi:type="arc"
       sodipodi:cx="122.52229"
       sodipodi:cy="133.41502"
       sodipodi:rx="5.036005"
       sodipodi:ry="5.0360274"
       sodipodi:start="0"
       sodipodi:end="6.2737605"
       sodipodi:open="true"
       d="m 127.5583,133.41502 a 5.036005,5.0360274 0 0 1 -5.02414,5.03602 5.036005,5.0360274 0 0 1 -5.04782,-5.01228 5.036005,5.0360274 0 0 1 5.00036,-5.05964 5.036005,5.0360274 0 0 1 5.07137,4.98844" />
    <path
       style="fill:none;stroke:#ffffff;stroke-width:3;stroke-linecap:round;stroke-linejoin:miter;stroke-miterlimit:4;stroke-dasharray:none;stroke-opacity:1"
       d="M 81.134186,133.36756 H 160.74648"
       id="path14759-13-9"
       inkscape:connector-curvature="0"
       sodipodi:nodetypes="cc" />
    <path
       style="opacity:1;fill:#fcfcf9;fill-opacity:1;fill-rule:nonzero;stroke:#ffffff;stroke-width:0.92794341;stroke-linecap:round;stroke-linejoin:round;stroke-miterlimit:4;stroke-dasharray:none;stroke-opacity:1;paint-order:stroke fill markers"
       id="path14757-0-0-7-1"
       sodipodi:type="arc"
       sodipodi:cx="400.27393"
       sodipodi:cy="133.95184"
       sodipodi:rx="5.036005"
       sodipodi:ry="5.0360274"
       sodipodi:start="0"
       sodipodi:end="6.2737605"
       sodipodi:open="true"
       d="m 405.30993,133.95184 a 5.036005,5.0360274 0 0 1 -5.02414,5.03602 5.036005,5.0360274 0 0 1 -5.04781,-5.01229 5.036005,5.0360274 0 0 1 5.00035,-5.05963 5.036005,5.0360274 0 0 1 5.07138,4.98844" />
    <path
       style="fill:none;stroke:#ffffff;stroke-width:3;stroke-linecap:round;stroke-linejoin:miter;stroke-miterlimit:4;stroke-dasharray:none;stroke-opacity:1"
       d="m 358.88586,133.90439 h 79.6123"
       id="path14759-13-9-6"
       inkscape:connector-curvature="0"
       sodipodi:nodetypes="cc" />
    <path
       style="opacity:1;fill:#fcfcf9;fill-opacity:1;fill-rule:nonzero;stroke:#ffffff;stroke-width:0.92794335;stroke-linecap:round;stroke-linejoin:round;stroke-miterlimit:4;stroke-dasharray:none;stroke-opacity:1;paint-order:stroke fill markers"
       id="path14757-0-3-5"
       sodipodi:type="arc"
       sodipodi:cx="400.27393"
       sodipodi:cy="156.17654"
       sodipodi:rx="5.036005"
       sodipodi:ry="5.0360274"
       sodipodi:start="0"
       sodipodi:end="6.2737605"
       sodipodi:open="true"
       d="m 405.30993,156.17654 a 5.036005,5.0360274 0 0 1 -5.02414,5.03602 5.036005,5.0360274 0 0 1 -5.04781,-5.01228 5.036005,5.0360274 0 0 1 5.00035,-5.05964 5.036005,5.0360274 0 0 1 5.07138,4.98844" />
    <path
       style="fill:none;stroke:#ffffff;stroke-width:3;stroke-linecap:round;stroke-linejoin:miter;stroke-miterlimit:4;stroke-dasharray:none;stroke-opacity:1"
       d="m 400.3543,156.12908 v -22.2247"
       id="path14759-9"
       inkscape:connector-curvature="0"
       sodipodi:nodetypes="cc" />
    <path
       style="opacity:1;fill:#fcfcf9;fill-opacity:1;fill-rule:nonzero;stroke:#ffffff;stroke-width:0.92794341;stroke-linecap:round;stroke-linejoin:round;stroke-miterlimit:4;stroke-dasharray:none;stroke-opacity:1;paint-order:stroke fill markers"
       id="path14757-0-0-7-9"
       sodipodi:type="arc"
       sodipodi:cx="666.63226"
       sodipodi:cy="133.5388"
       sodipodi:rx="5.036005"
       sodipodi:ry="5.0360274"
       sodipodi:start="0"
       sodipodi:end="6.2737605"
       sodipodi:open="true"
       d="m 671.66827,133.5388 a 5.036005,5.0360274 0 0 1 -5.02414,5.03602 5.036005,5.0360274 0 0 1 -5.04782,-5.01229 5.036005,5.0360274 0 0 1 5.00036,-5.05963 5.036005,5.0360274 0 0 1 5.07137,4.98844" />
    <path
       style="fill:none;stroke:#ffffff;stroke-width:3;stroke-linecap:round;stroke-linejoin:miter;stroke-miterlimit:4;stroke-dasharray:none;stroke-opacity:1"
       d="m 643.76536,133.4913 h 79.61229"
       id="path14759-13-9-7"
       inkscape:connector-curvature="0"
       sodipodi:nodetypes="cc" />
    <path
       style="opacity:1;fill:#fcfcf9;fill-opacity:1;fill-rule:nonzero;stroke:#ffffff;stroke-width:0.92794341;stroke-linecap:round;stroke-linejoin:round;stroke-miterlimit:4;stroke-dasharray:none;stroke-opacity:1;paint-order:stroke fill markers"
       id="path14757-0-0-7-9-8"
       sodipodi:type="arc"
       sodipodi:cx="699.97028"
       sodipodi:cy="133.5388"
       sodipodi:rx="5.036005"
       sodipodi:ry="5.0360274"
       sodipodi:start="0"
       sodipodi:end="6.2737605"
       sodipodi:open="true"
       d="m 705.00628,133.5388 a 5.036005,5.0360274 0 0 1 -5.02414,5.03602 5.036005,5.0360274 0 0 1 -5.04781,-5.01229 5.036005,5.0360274 0 0 1 5.00035,-5.05963 5.036005,5.0360274 0 0 1 5.07138,4.98844" />
    <path
       style="opacity:1;fill:#fcfcf9;fill-opacity:1;fill-rule:nonzero;stroke:#ffffff;stroke-width:0.92794341;stroke-linecap:round;stroke-linejoin:round;stroke-miterlimit:4;stroke-dasharray:none;stroke-opacity:1;paint-order:stroke fill markers"
       id="path14757-0-0-1-9"
       sodipodi:type="arc"
       sodipodi:cx="976.82996"
       sodipodi:cy="134.00992"
       sodipodi:rx="5.036005"
       sodipodi:ry="5.0360274"
       sodipodi:start="0"
       sodipodi:end="6.2737605"
       sodipodi:open="true"
       d="m 981.86596,134.00992 a 5.036005,5.0360274 0 0 1 -5.02414,5.03601 5.036005,5.0360274 0 0 1 -5.04781,-5.01228 5.036005,5.0360274 0 0 1 5.00035,-5.05963 5.036005,5.0360274 0 0 1 5.07138,4.98844" />
    <path
       style="fill:none;stroke:#ffffff;stroke-width:3;stroke-linecap:round;stroke-linejoin:miter;stroke-miterlimit:4;stroke-dasharray:none;stroke-opacity:1"
       d="m 934.72917,133.96243 h 42.32337"
       id="path14759-13-5-6"
       inkscape:connector-curvature="0"
       sodipodi:nodetypes="cc" />
    <path
       style="opacity:1;fill:none;fill-opacity:1;fill-rule:nonzero;stroke:#ffffff;stroke-width:3;stroke-linecap:round;stroke-linejoin:round;stroke-miterlimit:4;stroke-dasharray:none;stroke-opacity:1;paint-order:stroke fill markers"
       id="path14757-9-12"
       sodipodi:type="arc"
       sodipodi:cx="993.05646"
       sodipodi:cy="134.00992"
       sodipodi:rx="16.023651"
       sodipodi:ry="16.023722"
       sodipodi:start="0"
       sodipodi:end="6.2737605"
       sodipodi:open="true"
       d="m 1009.0801,134.00992 a 16.023651,16.023722 0 0 1 -15.98589,16.02368 16.023651,16.023722 0 0 1 -16.06123,-15.94817 16.023651,16.023722 0 0 1 15.91021,-16.09883 16.023651,16.023722 0 0 1 16.13621,15.8723" />
    <path
       style="opacity:1;fill:#fcfcf9;fill-opacity:1;fill-rule:nonzero;stroke:#ffffff;stroke-width:0.92794341;stroke-linecap:round;stroke-linejoin:round;stroke-miterlimit:4;stroke-dasharray:none;stroke-opacity:1;paint-order:stroke fill markers"
       id="path14757-0-0-1-9-9"
       sodipodi:type="arc"
       sodipodi:cx="1008.2772"
       sodipodi:cy="133.90636"
       sodipodi:rx="5.036005"
       sodipodi:ry="5.0360274"
       sodipodi:start="0"
       sodipodi:end="6.2737605"
       sodipodi:open="true"
       d="m 1013.3132,133.90636 a 5.036005,5.0360274 0 0 1 -5.0241,5.03601 5.036005,5.0360274 0 0 1 -5.0478,-5.01228 5.036005,5.0360274 0 0 1 5.0003,-5.05963 5.036005,5.0360274 0 0 1 5.0714,4.98843" />
    <path
       style="fill:none;stroke:#ffffff;stroke-width:3;stroke-linecap:round;stroke-linejoin:miter;stroke-miterlimit:4;stroke-dasharray:none;stroke-opacity:1"
       d="m 1009.0794,133.8589 h 42.3236"
       id="path14759-13-5-6-3"
       inkscape:connector-curvature="0"
       sodipodi:nodetypes="cc" />
    <path
       style="opacity:1;fill:none;fill-opacity:1;fill-rule:nonzero;stroke:#ffffff;stroke-width:3;stroke-linecap:round;stroke-linejoin:round;stroke-miterlimit:4;stroke-dasharray:none;stroke-opacity:1;paint-order:stroke fill markers"
       id="path14757-8"
       sodipodi:type="arc"
       sodipodi:cx="36.811169"
       sodipodi:cy="196.43999"
       sodipodi:rx="16.023651"
       sodipodi:ry="16.023722"
       sodipodi:start="0"
       sodipodi:end="6.2737605"
       sodipodi:open="true"
       d="m 52.83482,196.43999 a 16.023651,16.023722 0 0 1 -15.985896,16.02367 16.023651,16.023722 0 0 1 -16.061229,-15.94816 16.023651,16.023722 0 0 1 15.91021,-16.09883 16.023651,16.023722 0 0 1 16.136203,15.8723" />
    <path
       style="opacity:1;fill:#fcfcf9;fill-opacity:1;fill-rule:nonzero;stroke:#ffffff;stroke-width:0.92794335;stroke-linecap:round;stroke-linejoin:round;stroke-miterlimit:4;stroke-dasharray:none;stroke-opacity:1;paint-order:stroke fill markers"
       id="path14757-0-0-9"
       sodipodi:type="arc"
       sodipodi:cx="84.938416"
       sodipodi:cy="197.02719"
       sodipodi:rx="5.036005"
       sodipodi:ry="5.0360274"
       sodipodi:start="0"
       sodipodi:end="6.2737605"
       sodipodi:open="true"
       d="m 89.974421,197.02719 a 5.036005,5.0360274 0 0 1 -5.02414,5.03601 5.036005,5.0360274 0 0 1 -5.047815,-5.01228 5.036005,5.0360274 0 0 1 5.000352,-5.05963 5.036005,5.0360274 0 0 1 5.071379,4.98844" />
    <path
       style="opacity:1;fill:#fcfcf9;fill-opacity:1;fill-rule:nonzero;stroke:#ffffff;stroke-width:0.92794341;stroke-linecap:round;stroke-linejoin:round;stroke-miterlimit:4;stroke-dasharray:none;stroke-opacity:1;paint-order:stroke fill markers"
       id="path14757-0-3-4-6"
       sodipodi:type="arc"
       sodipodi:cx="163.73634"
       sodipodi:cy="197.02719"
       sodipodi:rx="5.036005"
       sodipodi:ry="5.0360274"
       sodipodi:start="0"
       sodipodi:end="6.2737605"
       sodipodi:open="true"
       d="m 168.77235,197.02719 a 5.036005,5.0360274 0 0 1 -5.02414,5.03601 5.036005,5.0360274 0 0 1 -5.04782,-5.01228 5.036005,5.0360274 0 0 1 5.00036,-5.05963 5.036005,5.0360274 0 0 1 5.07137,4.98844" />
    <path
       style="fill:none;stroke:#ffffff;stroke-width:3;stroke-linecap:round;stroke-linejoin:miter;stroke-miterlimit:4;stroke-dasharray:none;stroke-opacity:1"
       d="M 81.121169,196.97975 H 160.73349"
       id="path14759-13-2"
       inkscape:connector-curvature="0"
       sodipodi:nodetypes="cc" />
    <path
       style="opacity:1;fill:#fcfcf9;fill-opacity:1;fill-rule:nonzero;stroke:#ffffff;stroke-width:0.92794335;stroke-linecap:round;stroke-linejoin:round;stroke-miterlimit:4;stroke-dasharray:none;stroke-opacity:1;paint-order:stroke fill markers"
       id="path14757-0-3-1"
       sodipodi:type="arc"
       sodipodi:cx="384.59216"
       sodipodi:cy="197.02701"
       sodipodi:rx="5.036005"
       sodipodi:ry="5.0360274"
       sodipodi:start="0"
       sodipodi:end="6.2737605"
       sodipodi:open="true"
       d="m 389.62817,197.02701 a 5.036005,5.0360274 0 0 1 -5.02414,5.03601 5.036005,5.0360274 0 0 1 -5.04782,-5.01228 5.036005,5.0360274 0 0 1 5.00036,-5.05963 5.036005,5.0360274 0 0 1 5.07137,4.98844" />
    <path
       style="opacity:1;fill:#fcfcf9;fill-opacity:1;fill-rule:nonzero;stroke:#ffffff;stroke-width:0.92794341;stroke-linecap:round;stroke-linejoin:round;stroke-miterlimit:4;stroke-dasharray:none;stroke-opacity:1;paint-order:stroke fill markers"
       id="path14757-0-0-7-9-4"
       sodipodi:type="arc"
       sodipodi:cx="645.46527"
       sodipodi:cy="197.02701"
       sodipodi:rx="5.036005"
       sodipodi:ry="5.0360274"
       sodipodi:start="0"
       sodipodi:end="6.2737605"
       sodipodi:open="true"
       d="m 650.50128,197.02701 a 5.036005,5.0360274 0 0 1 -5.02414,5.03601 5.036005,5.0360274 0 0 1 -5.04782,-5.01228 5.036005,5.0360274 0 0 1 5.00035,-5.05963 5.036005,5.0360274 0 0 1 5.07138,4.98844" />
    <path
       style="fill:none;stroke:#ffffff;stroke-width:3;stroke-linecap:round;stroke-linejoin:miter;stroke-miterlimit:4;stroke-dasharray:none;stroke-opacity:1"
       d="m 643.76534,196.98043 h 79.61229"
       id="path14759-13-9-7-9"
       inkscape:connector-curvature="0"
       sodipodi:nodetypes="cc" />
    <path
       style="opacity:1;fill:#fcfcf9;fill-opacity:1;fill-rule:nonzero;stroke:#ffffff;stroke-width:0.92794341;stroke-linecap:round;stroke-linejoin:round;stroke-miterlimit:4;stroke-dasharray:none;stroke-opacity:1;paint-order:stroke fill markers"
       id="path14757-0-0-7-9-8-6"
       sodipodi:type="arc"
       sodipodi:cx="722.72479"
       sodipodi:cy="197.02701"
       sodipodi:rx="5.036005"
       sodipodi:ry="5.0360274"
       sodipodi:start="0"
       sodipodi:end="6.2737605"
       sodipodi:open="true"
       d="m 727.7608,197.02701 a 5.036005,5.0360274 0 0 1 -5.02414,5.03601 5.036005,5.0360274 0 0 1 -5.04782,-5.01228 5.036005,5.0360274 0 0 1 5.00036,-5.05963 5.036005,5.0360274 0 0 1 5.07137,4.98844" />
    <path
       style="opacity:1;fill:#fcfcf9;fill-opacity:1;fill-rule:nonzero;stroke:#ffffff;stroke-width:0.92794335;stroke-linecap:round;stroke-linejoin:round;stroke-miterlimit:4;stroke-dasharray:none;stroke-opacity:1;paint-order:stroke fill markers"
       id="path14757-0-3-6"
       sodipodi:type="arc"
       sodipodi:cx="683.83948"
       sodipodi:cy="197.05623"
       sodipodi:rx="5.036005"
       sodipodi:ry="5.0360274"
       sodipodi:start="0"
       sodipodi:end="6.2737605"
       sodipodi:open="true"
       d="m 688.87548,197.05623 a 5.036005,5.0360274 0 0 1 -5.02414,5.03601 5.036005,5.0360274 0 0 1 -5.04781,-5.01228 5.036005,5.0360274 0 0 1 5.00035,-5.05963 5.036005,5.0360274 0 0 1 5.07138,4.98844" />
    <path
       style="opacity:1;fill:#fcfcf9;fill-opacity:1;fill-rule:nonzero;stroke:#ffffff;stroke-width:0.92794341;stroke-linecap:round;stroke-linejoin:round;stroke-miterlimit:4;stroke-dasharray:none;stroke-opacity:1;paint-order:stroke fill markers"
       id="path14757-0-0-1-6-3"
       sodipodi:type="arc"
       sodipodi:cx="953.73071"
       sodipodi:cy="196.44028"
       sodipodi:rx="5.036005"
       sodipodi:ry="5.0360274"
       sodipodi:start="0"
       sodipodi:end="6.2737605"
       sodipodi:open="true"
       d="m 958.76672,196.44028 a 5.036005,5.0360274 0 0 1 -5.02414,5.03601 5.036005,5.0360274 0 0 1 -5.04782,-5.01228 5.036005,5.0360274 0 0 1 5.00036,-5.05963 5.036005,5.0360274 0 0 1 5.07137,4.98843" />
    <path
       style="opacity:1;fill:none;fill-opacity:1;fill-rule:nonzero;stroke:#ffffff;stroke-width:3;stroke-linecap:round;stroke-linejoin:round;stroke-miterlimit:4;stroke-dasharray:none;stroke-opacity:1;paint-order:stroke fill markers"
       id="path14757-9-0-8"
       sodipodi:type="arc"
       sodipodi:cx="969.95721"
       sodipodi:cy="196.44028"
       sodipodi:rx="16.023651"
       sodipodi:ry="16.023722"
       sodipodi:start="0"
       sodipodi:end="6.2737605"
       sodipodi:open="true"
       d="m 985.98087,196.44028 a 16.023651,16.023722 0 0 1 -15.9859,16.02367 16.023651,16.023722 0 0 1 -16.06123,-15.94816 16.023651,16.023722 0 0 1 15.91021,-16.09883 16.023651,16.023722 0 0 1 16.1362,15.8723" />
    <path
       style="opacity:1;fill:#fcfcf9;fill-opacity:1;fill-rule:nonzero;stroke:#ffffff;stroke-width:0.92794341;stroke-linecap:round;stroke-linejoin:round;stroke-miterlimit:4;stroke-dasharray:none;stroke-opacity:1;paint-order:stroke fill markers"
       id="path14757-0-0-1-9-99"
       sodipodi:type="arc"
       sodipodi:cx="915.11157"
       sodipodi:cy="196.44028"
       sodipodi:rx="5.036005"
       sodipodi:ry="5.0360274"
       sodipodi:start="0"
       sodipodi:end="6.2737605"
       sodipodi:open="true"
       d="m 920.14758,196.44028 a 5.036005,5.0360274 0 0 1 -5.02414,5.03601 5.036005,5.0360274 0 0 1 -5.04782,-5.01228 5.036005,5.0360274 0 0 1 5.00036,-5.05963 5.036005,5.0360274 0 0 1 5.07137,4.98843" />
    <path
       style="fill:none;stroke:#ffffff;stroke-width:3;stroke-linecap:round;stroke-linejoin:miter;stroke-miterlimit:4;stroke-dasharray:none;stroke-opacity:1"
       d="m 915.38477,196.39281 h 42.32338"
       id="path14759-13-5-6-9"
       inkscape:connector-curvature="0"
       sodipodi:nodetypes="cc" />
    <path
       style="opacity:1;fill:none;fill-opacity:1;fill-rule:nonzero;stroke:#ffffff;stroke-width:3;stroke-linecap:round;stroke-linejoin:round;stroke-miterlimit:4;stroke-dasharray:none;stroke-opacity:1;paint-order:stroke fill markers"
       id="path14757-9-0-8-7"
       sodipodi:type="arc"
       sodipodi:cx="1055.3407"
       sodipodi:cy="195.93985"
       sodipodi:rx="16.023651"
       sodipodi:ry="16.023722"
       sodipodi:start="0"
       sodipodi:end="6.2737605"
       sodipodi:open="true"
       d="m 1071.3643,195.93985 a 16.023651,16.023722 0 0 1 -15.9858,16.02368 16.023651,16.023722 0 0 1 -16.0613,-15.94817 16.023651,16.023722 0 0 1 15.9102,-16.09883 16.023651,16.023722 0 0 1 16.1362,15.8723" />
    <path
       style="opacity:1;fill:none;fill-opacity:1;fill-rule:nonzero;stroke:#ffffff;stroke-width:3;stroke-linecap:round;stroke-linejoin:round;stroke-miterlimit:4;stroke-dasharray:none;stroke-opacity:1;paint-order:stroke fill markers"
       id="path14757-9-0-8-7-3"
       sodipodi:type="arc"
       sodipodi:cx="1023.1603"
       sodipodi:cy="195.94028"
       sodipodi:rx="16.023651"
       sodipodi:ry="16.023722"
       sodipodi:start="0"
       sodipodi:end="6.2737605"
       sodipodi:open="true"
       d="m 1039.1839,195.94028 a 16.023651,16.023722 0 0 1 -15.9859,16.02367 16.023651,16.023722 0 0 1 -16.0612,-15.94816 16.023651,16.023722 0 0 1 15.9102,-16.09883 16.023651,16.023722 0 0 1 16.1362,15.8723" />
  </g>
  <g
     inkscape:label="Layer 1"
     inkscape:groupmode="layer"
     id="layer1"
     transform="translate(0,53)"
     sodipodi:insensitive="true">
    <path
       style="opacity:1;fill:none;fill-opacity:1;fill-rule:nonzero;stroke:#333333;stroke-width:8.58870983;stroke-linecap:round;stroke-linejoin:round;stroke-miterlimit:4;stroke-dasharray:none;stroke-opacity:1;paint-order:stroke fill markers"
       id="path14506"
       sodipodi:type="arc"
       sodipodi:cx="255.99979"
       sodipodi:cy="87.000023"
       sodipodi:rx="80.705421"
       sodipodi:ry="80.70562"
       sodipodi:start="0"
       sodipodi:end="6.2737664"
       d="M 336.70521,87.000023 A 80.705421,80.70562 0 0 1 256.18983,167.70542 80.705421,80.70562 0 0 1 175.29526,87.380101 80.705421,80.70562 0 0 1 255.42967,6.2964168 80.705421,80.70562 0 0 1 336.70163,86.239875"
       sodipodi:open="true" />
    <path
       style="opacity:1;fill:none;fill-opacity:1;fill-rule:nonzero;stroke:#333333;stroke-width:8.58870888;stroke-linecap:round;stroke-linejoin:round;stroke-miterlimit:4;stroke-dasharray:none;stroke-opacity:1;paint-order:stroke fill markers"
       id="path14506-6"
       sodipodi:type="arc"
       sodipodi:cx="539.99982"
       sodipodi:cy="87.000031"
       sodipodi:rx="80.705421"
       sodipodi:ry="80.705612"
       sodipodi:start="0"
       sodipodi:end="6.2737664"
       d="M 620.70524,87.000031 A 80.705421,80.705612 0 0 1 540.18986,167.70542 80.705421,80.705612 0 0 1 459.29529,87.380108 80.705421,80.705612 0 0 1 539.4297,6.296432 80.705421,80.705612 0 0 1 620.70166,86.239883"
       sodipodi:open="true" />
    <path
       style="opacity:1;fill:none;fill-opacity:1;fill-rule:nonzero;stroke:#333333;stroke-width:8.58870888;stroke-linecap:round;stroke-linejoin:round;stroke-miterlimit:4;stroke-dasharray:none;stroke-opacity:1;paint-order:stroke fill markers"
       id="path14506-6-3"
       sodipodi:type="arc"
       sodipodi:cx="824.99982"
       sodipodi:cy="87.000031"
       sodipodi:rx="80.705421"
       sodipodi:ry="80.705612"
       sodipodi:start="0"
       sodipodi:end="6.2737664"
       d="M 905.70524,87.000031 A 80.705421,80.705612 0 0 1 825.18986,167.70542 80.705421,80.705612 0 0 1 744.29529,87.380108 80.705421,80.705612 0 0 1 824.4297,6.296432 80.705421,80.705612 0 0 1 905.70166,86.239883"
       sodipodi:open="true" />
    <path
       style="fill:none;stroke:#333333;stroke-width:7.88320684;stroke-linecap:round;stroke-linejoin:miter;stroke-miterlimit:4;stroke-dasharray:none;stroke-opacity:1"
       d="M 640,-18 594.46283,27.536741"
       id="path14540-2"
       inkscape:connector-curvature="0"
       sodipodi:nodetypes="cc" />
    <path
       style="fill:none;stroke:#333333;stroke-width:7.88320684;stroke-linecap:round;stroke-linejoin:miter;stroke-miterlimit:4;stroke-dasharray:none;stroke-opacity:1"
       d="M 356,-18 310.46283,27.536739"
       id="path14540-2-1"
       inkscape:connector-curvature="0"
       sodipodi:nodetypes="cc" />
    <path
       style="fill:none;stroke:#333333;stroke-width:7.88320684;stroke-linecap:round;stroke-linejoin:miter;stroke-miterlimit:4;stroke-dasharray:none;stroke-opacity:1"
       d="M 478.53717,143.46326 433,189"
       id="path14540-2-3"
       inkscape:connector-curvature="0"
       sodipodi:nodetypes="cc" />
    <path
       style="fill:none;stroke:#333333;stroke-width:5;stroke-linecap:round;stroke-linejoin:miter;stroke-miterlimit:4;stroke-dasharray:none;stroke-opacity:1"
       d="M 482.59508,30.037506 594.74214,142.18457"
       id="path14617"
       inkscape:connector-curvature="0"
       sodipodi:nodetypes="cc" />
    <path
       style="fill:none;stroke:#333333;stroke-width:5;stroke-linecap:round;stroke-linejoin:miter;stroke-miterlimit:4;stroke-dasharray:none;stroke-opacity:1"
       d="M 507.34011,15.901346 611.7529,120.31413"
       id="path14617-1"
       inkscape:connector-curvature="0"
       sodipodi:nodetypes="cc" />
    <path
       style="fill:none;stroke:#333333;stroke-width:5;stroke-linecap:round;stroke-linejoin:miter;stroke-miterlimit:4;stroke-dasharray:none;stroke-opacity:1"
       d="M 533.12509,4.5555054 622.06931,93.49973"
       id="path14617-1-7"
       inkscape:connector-curvature="0"
       sodipodi:nodetypes="cc" />
    <path
       style="fill:none;stroke:#333333;stroke-width:5;stroke-linecap:round;stroke-linejoin:miter;stroke-miterlimit:4;stroke-dasharray:none;stroke-opacity:1"
       d="M 468.84292,53.687276 573.25571,158.10006"
       id="path14617-1-72"
       inkscape:connector-curvature="0"
       sodipodi:nodetypes="cc" />
    <path
       style="fill:none;stroke:#333333;stroke-width:5;stroke-linecap:round;stroke-linejoin:miter;stroke-miterlimit:4;stroke-dasharray:none;stroke-opacity:1"
       d="M 457.64065,80.202779 546.58487,169.147"
       id="path14617-1-7-8"
       inkscape:connector-curvature="0"
       sodipodi:nodetypes="cc" />
    <path
       style="fill:none;stroke:#333333;stroke-width:5;stroke-linecap:round;stroke-linejoin:miter;stroke-miterlimit:4;stroke-dasharray:none;stroke-opacity:1"
       d="M 198.55438,30.20228 310.70144,142.34935"
       id="path14617-6"
       inkscape:connector-curvature="0"
       sodipodi:nodetypes="cc" />
    <path
       style="fill:none;stroke:#333333;stroke-width:5;stroke-linecap:round;stroke-linejoin:miter;stroke-miterlimit:4;stroke-dasharray:none;stroke-opacity:1"
       d="M 223.29941,16.06612 327.7122,120.47891"
       id="path14617-1-5"
       inkscape:connector-curvature="0"
       sodipodi:nodetypes="cc" />
    <path
       style="fill:none;stroke:#333333;stroke-width:5;stroke-linecap:round;stroke-linejoin:miter;stroke-miterlimit:4;stroke-dasharray:none;stroke-opacity:1"
       d="m 249.3484,4.45512 88.94422,88.94422"
       id="path14617-1-7-9"
       inkscape:connector-curvature="0"
       sodipodi:nodetypes="cc" />
    <path
       style="fill:none;stroke:#333333;stroke-width:5;stroke-linecap:round;stroke-linejoin:miter;stroke-miterlimit:4;stroke-dasharray:none;stroke-opacity:1"
       d="M 184.80222,53.85205 289.21501,158.26484"
       id="path14617-1-72-4"
       inkscape:connector-curvature="0"
       sodipodi:nodetypes="cc" />
    <path
       style="fill:none;stroke:#333333;stroke-width:5;stroke-linecap:round;stroke-linejoin:miter;stroke-miterlimit:4;stroke-dasharray:none;stroke-opacity:1"
       d="m 173.59995,80.36756 88.94422,88.94422"
       id="path14617-1-7-8-2"
       inkscape:connector-curvature="0"
       sodipodi:nodetypes="cc" />
    <path
       style="fill:none;stroke:#333333;stroke-width:5;stroke-linecap:round;stroke-linejoin:miter;stroke-miterlimit:4;stroke-dasharray:none;stroke-opacity:1"
       d="M 767.55441,30.20228 879.70147,142.34935"
       id="path14617-6-1"
       inkscape:connector-curvature="0"
       sodipodi:nodetypes="cc" />
    <path
       style="fill:none;stroke:#333333;stroke-width:5;stroke-linecap:round;stroke-linejoin:miter;stroke-miterlimit:4;stroke-dasharray:none;stroke-opacity:1"
       d="M 792.29944,16.06612 896.71223,120.47891"
       id="path14617-1-5-4"
       inkscape:connector-curvature="0"
       sodipodi:nodetypes="cc" />
    <path
       style="fill:none;stroke:#333333;stroke-width:5;stroke-linecap:round;stroke-linejoin:miter;stroke-miterlimit:4;stroke-dasharray:none;stroke-opacity:1"
       d="m 818.34843,4.45512 88.94422,88.94422"
       id="path14617-1-7-9-8"
       inkscape:connector-curvature="0"
       sodipodi:nodetypes="cc" />
    <path
       style="fill:none;stroke:#333333;stroke-width:5;stroke-linecap:round;stroke-linejoin:miter;stroke-miterlimit:4;stroke-dasharray:none;stroke-opacity:1"
       d="M 753.80225,53.85205 858.21504,158.26484"
       id="path14617-1-72-4-1"
       inkscape:connector-curvature="0"
       sodipodi:nodetypes="cc" />
    <path
       style="fill:none;stroke:#333333;stroke-width:5;stroke-linecap:round;stroke-linejoin:miter;stroke-miterlimit:4;stroke-dasharray:none;stroke-opacity:1"
       d="m 742.59998,80.36756 88.94422,88.94422"
       id="path14617-1-7-8-2-9"
       inkscape:connector-curvature="0"
       sodipodi:nodetypes="cc" />
  </g>
</svg>
